<?xml version="1.0" encoding="UTF-8"?>
<svg id="Layer_2" data-name="Layer 2" xmlns="http://www.w3.org/2000/svg" viewBox="0 0 1007.43 179.81">
  <defs>
    <style>
      .cls-1 {
        fill: #b256f7;
      }

      .cls-2 {
        fill: #7a31f7;
      }

      .cls-3 {
        fill: #0b0020;
      }
    </style>
  </defs>
  <g id="Layer_1-2" data-name="Layer 1">
    <g>
      <g>
        <path class="cls-3" d="M387.44,85.69v12c0,22.22-7.11,40.22-21.33,53.99-14.22,13.78-32.66,20.66-55.11,20.66-23.99,0-43.99-7.78-59.77-23.33-15.77-15.77-23.55-34.88-23.55-57.33s7.78-41.77,23.33-57.55c15.78-15.78,35.11-23.55,58.22-23.55,29.11,0,54.44,14.22,67.77,36.22l-26.22,15.11c-7.33-12.66-23.33-21.55-41.77-21.55-14.89,0-27.11,4.89-36.66,14.66-9.55,9.55-14.22,21.77-14.22,36.66s4.89,26.89,14.44,36.44c9.78,9.55,22.66,14.22,38.66,14.22,23.77,0,39.77-11.11,45.33-29.55h-47.11v-27.11h77.99Z"/>
        <path class="cls-3" d="M427.35,125.46c3.78,14,14.22,20.89,31.33,20.89,10.89,0,19.33-3.78,24.88-11.11l23.11,13.33c-10.89,15.78-27.11,23.78-48.44,23.78-18.44,0-33.11-5.56-44.21-16.66-11.11-11.11-16.67-25.11-16.67-42s5.55-30.67,16.44-41.77c10.89-11.33,25.11-16.89,42.22-16.89,16.22,0,29.77,5.56,40.22,16.89,10.66,11.33,16,25.11,16,41.77,0,3.78-.44,7.55-1.11,11.77h-83.77ZM483.56,103.24c-3.33-15.11-14.44-22.44-27.55-22.44-15.33,0-25.78,8.22-29.11,22.44h56.66Z"/>
        <path class="cls-3" d="M692.14,100.8v68.44h-28.66v-66.44c0-13.33-6.89-21.11-18.66-21.11-13.11,0-20.66,8.89-20.66,25.11v62.44h-28.66v-66.44c0-13.33-6.89-21.11-18.66-21.11-12.67,0-20.89,8.89-20.89,25.11v62.44h-28.66V58.14h28.66v11.78c6.67-10,16.89-14.89,30.88-14.89s23.77,5.33,30.22,16c7.33-10.67,18.44-16,33.11-16,25.55,0,42,18,42,45.77"/>
        <path class="cls-3" d="M708.68,27.25c0-9.55,8-17.78,17.55-17.78s17.78,8.22,17.78,17.78-8,17.55-17.78,17.55-17.55-8-17.55-17.55M712.01,58.13h28.66v111.1h-28.66V58.13Z"/>
        <path class="cls-3" d="M866.5,169.23l-12.66-34.88h-69.99l-12.66,34.88h-22l57.99-155.54h23.33l57.99,155.54h-22ZM790.96,115.02h55.77l-27.99-76.66-27.77,76.66Z"/>
        <path class="cls-3" d="M988.09,13.7h19.33v155.54h-19.33v-19.11c-9.55,14.67-23.55,22-42,22-15.55,0-28.88-5.55-39.77-16.89-10.89-11.33-16.44-25.33-16.44-41.55s5.56-30,16.44-41.33c10.89-11.33,24.22-17.11,39.77-17.11,18.44,0,32.44,7.33,42,22V13.7ZM976.76,142.13c7.56-7.78,11.33-17.11,11.33-28.44s-3.78-20.66-11.33-28.22c-7.55-7.78-16.89-11.55-28.22-11.55s-20.44,3.78-28,11.55c-7.55,7.56-11.33,16.89-11.33,28.22s3.78,20.66,11.33,28.44c7.56,7.55,16.89,11.33,28,11.33s20.66-3.78,28.22-11.33"/>
      </g>
      <g>
        <path class="cls-1" d="M169.67,168.56c-15,15-39.32,15-54.31,0-15-15-15-39.32,0-54.31,15-15,39.32-15,54.31,0,15,15,15,39.32,0,54.31"/>
        <path class="cls-2" d="M169.67,65.56c-15,15-39.32,15-54.31,0-15-15-15-39.32,0-54.31,15-15,39.32-15,54.31,0,15,15,15,39.32,0,54.31"/>
        <path class="cls-1" d="M65.56,65.56c-15,15-39.32,15-54.31,0C-3.75,50.56-3.75,26.25,11.25,11.25c15-15,39.32-15,54.31,0,15,15,15,39.32,0,54.31"/>
        <rect class="cls-2" x="1.97" y="104.97" width="72.87" height="72.87"/>
      </g>
    </g>
  </g>
</svg>